<?xml version="1.0" encoding="UTF-8"?>
<svg id="Layer_2" data-name="Layer 2" xmlns="http://www.w3.org/2000/svg" viewBox="0 0 325.33 400.95">
  <g id="Layer_1-2" data-name="Layer 1">
    <g id="Layer_3" data-name="Layer 3">
      <g>
        <path d="M277.68,47.64C246.96,16.92,206.11,0,162.66,0S78.37,16.92,47.64,47.64C16.92,78.37,0,119.21,0,162.66c0,31.2,8.11,63.16,24.1,94.98,12.34,24.56,29.41,49.13,50.74,73.01,35.8,40.08,71.41,64.65,72.91,65.67,4.41,3.02,9.57,4.62,14.91,4.62s10.5-1.6,14.91-4.61c1.5-1.03,37.1-25.57,72.91-65.68,21.32-23.88,38.39-48.44,50.74-73.01,15.99-31.83,24.1-63.79,24.1-94.98,0-43.45-16.92-84.3-47.64-115.02ZM278.88,246.42c-11.36,22.6-27.19,45.34-47.05,67.58-33.82,37.87-66.99,60.74-68.39,61.7-.29.2-.59.24-.79.24s-.49-.04-.79-.24c-1.4-.96-34.59-23.85-68.39-61.7-19.86-22.24-35.69-44.98-47.05-67.58-14.23-28.31-21.44-56.49-21.44-83.76,0-36.77,14.32-71.34,40.32-97.34,26-26,60.57-40.32,97.34-40.32s71.34,14.32,97.34,40.32c26,26,40.32,60.57,40.32,97.34,0,27.27-7.21,55.45-21.44,83.76Z"/>
        <path d="M162.66,84.54c-44.6,0-80.88,36.28-80.88,80.88s36.28,80.88,80.88,80.88,80.88-36.28,80.88-80.88-36.28-80.88-80.88-80.88ZM162.66,221.3c-30.81,0-55.88-25.07-55.88-55.88s25.07-55.88,55.88-55.88,55.88,25.07,55.88,55.88-25.07,55.88-55.88,55.88Z"/>
      </g>
    </g>
  </g>
</svg>