<?xml version="1.0" encoding="UTF-8"?>
<svg id="Layer_2" data-name="Layer 2" xmlns="http://www.w3.org/2000/svg" viewBox="0 0 384.93 307.66">
  <g id="Layer_1-2" data-name="Layer 1">
    <g id="Layer_2-2" data-name="Layer 2">
      <path d="M320.54,0H64.39C28.88,0,0,28.88,0,64.39v178.89c0,35.5,28.88,64.39,64.39,64.39h256.15c35.5,0,64.39-28.88,64.39-64.39V64.39c0-35.5-28.88-64.39-64.39-64.39ZM260.37,154.89l97.75-102.31c1.17,3.73,1.81,7.7,1.81,11.81v178.89c0,4.09-.63,8.04-1.79,11.75l-97.76-100.14ZM320.54,25c8.38,0,16.15,2.64,22.55,7.12l-110.92,116.11c-14.19,14.71-27.18,21.87-39.7,21.87s-25.5-7.15-39.66-21.82L41.85,32.11c6.39-4.48,14.16-7.11,22.54-7.11h256.15ZM26.79,255.03c-1.16-3.71-1.79-7.66-1.79-11.75V64.39c0-4.12.64-8.08,1.81-11.82l97.74,102.32L26.79,255.03ZM64.39,282.66c-8.42,0-16.22-2.66-22.63-7.18l100.35-102.79c16.66,15.05,33.2,22.39,50.35,22.39s33.68-7.34,50.35-22.39l100.35,102.79c-6.41,4.51-14.21,7.18-22.63,7.18H64.39Z"/>
    </g>
  </g>
</svg>