<?xml version="1.0" encoding="UTF-8"?>
<svg id="Layer_2" data-name="Layer 2" xmlns="http://www.w3.org/2000/svg" viewBox="0 0 330.3 357.84">
  <g id="Layer_1-2" data-name="Layer 1">
    <g id="Layer_4" data-name="Layer 4">
      <path d="M252.43,357.84c-17.72,0-37.25-4.7-58.19-14.13-38.07-17.14-78.61-49.11-114.16-90C44.55,212.83,18.56,168.27,6.91,128.23-7.14,79.98.32,41.54,28.48,17.06,43.2,4.26,59.64-1.65,74.76.4c13.5,1.83,25.24,9.75,33.96,22.89l34.59,51.92c11.77,17.75,8.53,41.63-7.52,55.58l-13.5,11.73c-2.56,2.23-2.22,7.23-1.48,11.04,4.94,25.41,39.76,65.45,64.23,73.88,3.66,1.26,8.57,2.3,11.13.08l13.5-11.73c16.05-13.95,40.15-13.84,56.07.27l.02.02,46.62,41.49c11.79,10.45,17.99,23.18,17.93,36.8-.07,15.26-8.22,30.71-22.94,43.5-15.3,13.3-33.84,19.97-54.94,19.97ZM68.73,25c-7.3,0-15.65,3.81-23.85,10.93C-.36,75.25,37.84,167,98.95,237.31c61.17,70.37,146.77,121.03,192.01,81.7,9.21-8,14.3-16.8,14.34-24.76.03-6.3-3.18-12.36-9.53-17.98l-46.62-41.49c-6.55-5.81-16.48-5.86-23.09-.11l-13.5,11.73c-6.38,5.55-17.75,10.86-35.67,4.69-33.23-11.44-73.93-58.25-80.63-92.75-3.62-18.61,3.23-29.12,9.62-34.67l13.5-11.73c6.61-5.75,7.94-15.58,3.1-22.88l-34.59-51.92c-4.71-7.1-10.25-11.11-16.5-11.96-.87-.12-1.76-.18-2.66-.18Z"/>
    </g>
  </g>
</svg>