<?xml version="1.0" encoding="UTF-8"?><svg id="a" xmlns="http://www.w3.org/2000/svg" viewBox="0 0 251.72 68.26"><defs><style>.b{fill:#f4b1a4;}.c{fill:#fff;}.d{fill:#faece3;}</style></defs><path class="b" d="M2.05,40.78c2.44-2.82,24-13.52,68.05-9.67,11.16,.98,22.36,3.36,31.95,9.15,6.08,3.67,12.17,8.52,13,13.52,0,0,3,8.48,10.93,7.67,4.71-.48,7.88-3.85,9.57-6.65,2.41-3.99,5.38-7.61,9.03-10.51,7.77-6.18,20.75-12.55,41.97-13,47-1,62.5,6.5,62.5,6.5,0,0,3.06,.62,2.62,3.86s-3.49,5.04-6.53,4.44c-13.98-2.76-67.59-15.8-91.09,.81,0,0-6.29,3.68-14.64,14.66-3.14,4.13-8.01,6.65-13.2,6.7-.08,0-.16,0-.24,0-9.42,.02-13.06-3.91-16.79-9.66s-11.58-14.26-25.63-17.32c0,0-27.5-9.02-77,6,0,0-11,1-4.5-6.5Z"/><path class="d" d="M12.05,18.26l-7,11S80.05-.74,121.05,46.26c0,0-16-44-109-28Z"/><path class="d" d="M130.05,45.26S146.05,2.26,239.05,19.26l7,11.01s-66-26.01-116,14.99Z"/><path class="c" d="M124.98,34.49S101.05-7.74,34.05,1.26l-5,9S93.05-.74,124.98,34.49Z"/><path class="c" d="M127.39,34.49S148.05-5.74,216.05,1.26l7,9S158.05-1.74,127.39,34.49Z"/></svg>